<?xml version="1.0" encoding="UTF-8" standalone="no"?>
<!-- Created with Inkscape (http://www.inkscape.org/) -->

<svg
   width="99.395081mm"
   height="28.331884mm"
   viewBox="0 0 99.395081 28.331884"
   version="1.1"
   id="svg1"
   sodipodi:docname="owaranai.svg"
   inkscape:version="1.3.1 (91b66b0783, 2023-11-16)"
   xmlns:inkscape="http://www.inkscape.org/namespaces/inkscape"
   xmlns:sodipodi="http://sodipodi.sourceforge.net/DTD/sodipodi-0.dtd"
   xmlns="http://www.w3.org/2000/svg"
   xmlns:svg="http://www.w3.org/2000/svg">
  <sodipodi:namedview
     id="namedview1"
     pagecolor="#ffffff"
     bordercolor="#000000"
     borderopacity="0.25"
     inkscape:showpageshadow="2"
     inkscape:pageopacity="0.0"
     inkscape:pagecheckerboard="0"
     inkscape:deskcolor="#d1d1d1"
     inkscape:document-units="mm"
     inkscape:zoom="2.0485264"
     inkscape:cx="234.55885"
     inkscape:cy="99.827855"
     inkscape:window-width="1920"
     inkscape:window-height="1009"
     inkscape:window-x="-8"
     inkscape:window-y="-8"
     inkscape:window-maximized="1"
     inkscape:current-layer="g4" />
  <defs
     id="defs1">
    <rect
       x="194.68054"
       y="434.92459"
       width="345.17825"
       height="37.279251"
       id="rect3" />
    <rect
       x="73.177788"
       y="341.03613"
       width="372.79251"
       height="214.01051"
       id="rect1" />
  </defs>
  <g
     inkscape:label="Layer 1"
     inkscape:groupmode="layer"
     id="layer1">
    <g
       id="g4">
      <text
         xml:space="preserve"
         transform="matrix(0.26458333,0,0,0.26458333,-46.022426,-93.579843)"
         id="text1"
         style="white-space:pre;shape-inside:url(#rect1);fill:#ffffff" />
      <path
         style="font-weight:600;font-size:22.0765px;font-family:'Klee One';-inkscape-font-specification:'Klee One Semi-Bold';letter-spacing:-1.32292px;stroke-width:1.83971;fill:#ffffff"
         d="m 11.17071,16.932675 h 0.242841 q 0.94929,-0.04415 1.788197,-0.573989 0.860983,-0.551913 1.434972,-1.412896 0.573989,-0.860984 0.618142,-1.876503 v -0.176612 q 0,-1.368743 -1.170054,-2.295956 -1.170055,-0.9492894 -3.421858,-0.9492894 -0.132459,0 -0.264918,0.022076 -0.132459,0 -0.264918,0 -1.1700544,0.06623 -2.4504914,0.5298359 -1.2583605,0.44153 -2.428415,1.037596 0.022076,-1.170055 0.022076,-2.3180329 0,-1.1700545 0,-2.3401089 1.5674315,-0.397377 2.428415,-0.662295 0.88306,-0.264918 1.2583605,-0.4194535 0.3753005,-0.176612 0.4636065,-0.2869945 0.088306,-0.132459 0.088306,-0.220765 0,-0.132459 -0.1103825,-0.2869945 -0.1545355,-0.176612 -0.44153,-0.309071 -0.2869945,-0.1545355 -0.5519125,-0.1545355 -0.1103825,0 -0.1545355,0.022076 -0.1103825,0.022076 -0.220765,0.088306 -0.1103825,0.066229 -0.220765,0.1103825 -1.0375955,0.4194535 -2.516721,0.794754 v -3.885464 q 0,-0.088306 -0.044153,-0.2869945 Q 5.2100546,0.88305917 4.9672131,0.70644717 4.7243716,0.50775867 4.1503826,0.50775867 q -0.3753005,0 -0.485683,0.1986885 v 0.044153 q 0,0.088306 0.066229,0.220765 0.088306,0.11038253 0.1103825,0.17661203 0.132459,0.1545355 0.132459,0.485683 0,0.927213 0,1.9206555 0.022077,0.9934425 0.022077,2.0089615 -1.015519,0.220765 -1.9206555,0.3753005 -0.88306,0.1545355 -1.14797802,0.1545355 -0.176612,0 -0.353224,-0.022077 -0.1545355,-0.044153 -0.2869945,-0.044153 -0.11038249,0 -0.22076499,0.06623 Q 5.8555603e-7,6.1151897 5.8555603e-7,6.2034957 q 0,0.1545355 0.17661200444397,0.44153 0.17661199,0.2649179 0.46360649,0.4856829 0.2869945,0.220765 0.57398902,0.220765 0.1545355,0 0.838907,-0.088306 0.706448,-0.1103825 1.942732,-0.3753005 0.022076,0.662295 0.022076,1.3025135 0,0.6402185 0,1.280437 0,0.6181424 0,1.2142074 0,0.596066 -0.022076,1.170055 -1.633661,1.059672 -2.4504915,1.721967 -0.81683052,0.662295 -1.08174852,1.059672 -0.2428415,0.397377 -0.2428415,0.684371 0,0.485683 0.5077595,0.860984 0.1986885,0.132459 0.64021852,0.353224 0.44153,0.198688 0.927213,0.419453 0.5077595,0.220765 0.9492895,0.375301 0.44153,0.154535 0.6402185,0.198688 0.044153,0.02208 0.1103825,0.02208 0.066229,0 0.1103825,0 0.2869945,0 0.5519125,-0.154536 0.264918,-0.154535 0.4194535,-0.596065 0.066229,-0.176612 0.088306,-0.838907 0.044153,-0.662295 0.06623,-1.545355 0.022076,-0.905137 0.022076,-1.810273 1.1700545,-0.640219 2.4063385,-1.125902 1.236284,-0.485683 2.251803,-0.551912 0.1324589,0 0.2649179,0 0.132459,-0.02208 0.242842,-0.02208 1.501202,0 2.362185,0.50776 0.88306,0.507759 0.88306,1.655737 v 0.110383 q -0.02208,0.573989 -0.397377,1.103825 -0.3753,0.529836 -0.905136,0.88306 -0.529836,0.353224 -1.015519,0.397377 -0.110383,0 -0.242842,0.02208 -0.110382,0 -0.220765,0 -0.794754,0 -1.7219669,-0.132459 -0.927213,-0.132459 -1.6557375,-0.397377 -0.1545355,-0.06623 -0.2869945,-0.08831 -0.132459,-0.02208 -0.2428415,-0.02208 -0.309071,0 -0.309071,0.198688 0,0.220765 0.4636065,0.529836 0.4636065,0.286995 1.1700545,0.573989 0.7285245,0.286995 1.501202,0.485683 0.7726774,0.198689 1.3687434,0.198689 z M 15.012021,6.6450257 q 0.309071,0 0.529836,-0.2869945 0.242841,-0.2869945 0.242841,-0.5519125 0,-0.1545355 -0.06623,-0.309071 -0.04415,-0.132459 -0.419454,-0.397377 -0.353224,-0.264918 -0.88306,-0.573989 -0.529836,-0.3311475 -1.103825,-0.618142 -0.573989,-0.309071 -1.037595,-0.5077595 -0.463607,-0.220765 -0.706448,-0.264918 -0.06623,-0.022077 -0.198689,-0.022077 -0.286994,0 -0.596065,0.3753005 -0.06623,0.088306 -0.06623,0.1986885 0,0.264918 0.286995,0.4194535 0.993442,0.485683 1.876502,1.103825 0.88306,0.5960655 1.633661,1.236284 0.242842,0.1986885 0.50776,0.1986885 z M 3.7088526,16.071691 h -0.044153 q -0.132459,-0.02208 -0.4636065,-0.08831 -0.309071,-0.08831 -0.6843715,-0.198688 -0.353224,-0.132459 -0.618142,-0.264918 -0.264918,-0.132459 -0.264918,-0.264918 0,-0.04415 0.022077,-0.06623 0.1986885,-0.242841 0.8609835,-0.794754 0.6843715,-0.573989 1.457049,-1.125901 0,0.81683 -0.022076,1.479125 -0.022077,0.640219 -0.088306,1.170055 -0.044153,0.154535 -0.1545355,0.154535 z m 24.7052734,1.32459 v 0.06623 q 0.02208,0.154535 0.286995,0.154535 0.02208,0 0.596065,-0.154535 0.596066,-0.154536 1.501202,-0.485683 0.927213,-0.353224 1.920656,-0.905137 1.015519,-0.573989 1.920655,-1.390819 0.905137,-0.838907 1.457049,-1.942732 0.573989,-1.125902 0.573989,-2.582951 0,-1.6998904 -0.706448,-2.7816389 Q 35.279918,6.2918017 34.109863,5.7619657 32.961885,5.2100532 31.571066,5.1879767 h -0.132459 q -1.103825,0 -2.318033,0.4636065 -1.192131,0.4636065 -2.295956,1.2142074 -1.103825,0.7285245 -1.920655,1.589508 V 8.2566101 q 0.419453,-0.9051365 0.81683,-1.589508 0.397377,-0.7064479 0.463607,-0.8168304 0.04415,-0.044153 0.04415,-0.1103825 0,-0.06623 0,-0.1103825 0,-0.309071 -0.353224,-0.5519125 -0.331148,-0.264918 -0.640219,-0.264918 h -0.06623 q 0.08831,-1.103825 0.242841,-1.986885 0.154536,-0.9051365 0.242842,-1.3908195 0.02208,-0.044153 0.02208,-0.1103825 0,-0.066229 0,-0.088306 0,-0.28699453 -0.286994,-0.48568303 -0.286995,-0.220765 -0.662295,-0.3311475 -0.353224,-0.1103825 -0.596066,-0.1103825 -0.286994,0 -0.331147,0.132459 -0.02208,0.044153 -0.02208,0.1103825 0,0.132459 0.08831,0.2428415 0.110383,0.1103825 0.176612,0.24284153 0.04415,0.1103825 0.08831,0.2428415 0.04415,0.1103825 0.04415,0.264918 v 0.088306 q -0.08831,0.750601 -0.176612,1.721967 -0.06623,0.9492895 -0.132459,2.0531145 -0.88306,0.4194535 -1.721967,0.750601 -0.838907,0.309071 -1.214207,0.397377 -0.08831,0.022076 -0.264918,0.044153 -0.176612,0 -0.264918,0 -0.110383,-0.022076 -0.220765,-0.022076 -0.08831,0 -0.154536,0 -0.264918,0 -0.264918,0.2207649 v 0.06623 q 0.02208,0.1103825 0.198689,0.397377 0.176612,0.264918 0.463606,0.485683 0.309071,0.220765 0.662295,0.220765 0.110383,0 0.309071,-0.044153 0.220765,-0.06623 0.750601,-0.309071 0.529836,-0.264918 1.633661,-0.8168305 -0.02208,0.397377 -0.04415,0.8168305 -0.02208,0.397377 -0.04415,0.8168305 -0.242841,0.6402185 -1.103825,2.3401089 -0.860983,1.677814 -2.825792,4.238688 -0.110382,0.176612 -0.110382,0.353224 0,0.331148 0.242841,0.662295 0.264918,0.309071 0.573989,0.309071 0.309071,0 0.551913,-0.397377 0.640218,-1.103825 1.302513,-2.163497 0.662295,-1.059672 1.214208,-1.964808 -0.02208,0.750601 -0.04415,1.457049 0,0.706448 0,1.302513 0,0.485683 0,0.927213 0.02208,0.419454 0.04415,0.728525 v 0.06623 q 0,0.132459 -0.04415,0.264918 -0.02208,0.110383 -0.02208,0.286995 v 0.06623 q 0.04415,0.485683 0.331148,0.88306 0.309071,0.419454 0.596065,0.419454 0.375301,0 0.463607,-0.286995 0.08831,-0.286994 0.110382,-0.573989 v -0.132459 q 0,-0.286994 -0.04415,-0.529836 -0.02208,-0.242841 -0.04415,-0.353224 -0.06623,-0.728524 -0.08831,-1.567431 -0.02208,-0.838907 -0.02208,-1.744044 0,-0.640218 0,-1.280437 0.02208,-0.662295 0.04415,-1.346666 1.280437,-1.6998909 2.847868,-2.7374864 1.589508,-1.0596719 3.443934,-1.2142074 0.110383,0 0.198689,0 0.08831,-0.022077 0.176612,-0.022077 0.927213,0 1.744043,0.3532239 0.816831,0.3311475 1.32459,1.1259015 0.50776,0.794754 0.50776,2.1634969 0,1.39082 -0.640219,2.472568 -0.618142,1.081749 -1.589508,1.920656 -0.949289,0.81683 -1.986885,1.434972 -1.037595,0.596066 -1.876502,1.037596 -0.154536,0.08831 -0.353224,0.198688 -0.198689,0.110383 -0.198689,0.264918 z M 47.732734,4.3049167 h 0.176612 q 0.507759,-0.044153 1.280437,-0.088306 0.772677,-0.044153 1.192131,-0.132459 0.309071,-0.066229 0.463606,-0.3753005 0.154536,-0.3311475 0.154536,-0.618142 0,-0.2428415 -0.110383,-0.353224 Q 50.47022,2.3401082 49.631313,1.8985782 48.792406,1.4349717 47.865193,1.0596712 46.93798,0.68437067 46.231532,0.48568217 h -0.06623 q -0.198688,0 -0.44153,0.1986885 -0.220765,0.176612 -0.220765,0.39737703 0,0.2428415 0.309071,0.3753005 0.794754,0.3753005 1.611585,0.8168305 0.81683,0.4194535 1.434972,0.8609835 -0.993442,0.4194535 -1.346666,0.5960655 -0.353224,0.1545355 -0.353224,0.3311475 0,0.2428415 0.573989,0.2428415 z m 6.004808,7.9696163 v 0.02208 q 0,0.81683 -0.618142,1.545355 -0.618142,0.728524 -1.633661,1.346666 -0.993443,0.596066 -2.20765,1.059672 -1.192131,0.44153 -2.384262,0.728525 -0.971366,0.220765 -0.971366,0.485683 0,0.242841 0.81683,0.242841 h 0.309071 q 1.457049,-0.132459 2.914098,-0.551912 1.479126,-0.397377 2.693333,-1.081749 1.236284,-0.684371 1.986885,-1.633661 0.750601,-0.971366 0.750601,-2.229726 0,-0.838907 -0.551912,-1.479126 -0.529836,-0.662295 -1.457049,-1.0375954 -0.905137,-0.3753005 -2.031038,-0.3753005 -1.567432,0 -3.223169,0.5519125 -1.633661,0.5519124 -3.068634,1.4128964 V 10.90579 q 0,-0.750601 0.04415,-1.8323494 0.06623,-1.0817485 0.220765,-2.163497 0.176612,-1.0817484 0.463607,-1.8102729 0.06623,-0.176612 0.06623,-0.3311475 0,-0.176612 -0.08831,-0.3311475 -0.08831,-0.1545355 -0.353224,-0.1545355 -0.353224,0 -0.640218,0.5077595 -0.286995,0.5077595 -0.50776,1.32459 -0.198688,0.8168304 -0.353224,1.7661199 -0.132459,0.9492895 -0.198688,1.8765025 -0.06623,0.9272129 -0.06623,1.6115849 0,0.772677 0.08831,1.125901 0.08831,0.353224 0.286995,0.463607 0.220765,0.08831 0.529836,0.08831 0.463606,0 0.684371,-0.198689 0.529836,-0.463606 1.434973,-0.971366 0.927213,-0.529836 2.075191,-0.905136 1.170054,-0.397377 2.406338,-0.419454 h 0.06623 q 1.081748,0 1.788196,0.463607 0.728525,0.463606 0.728525,1.25836 z M 67.80194,0.64021767 v 0.1545355 q 0,0.044153 -0.06623,0.30907103 -0.04415,0.264918 -0.220765,0.88306 -0.154536,0.618142 -0.529836,1.721967 -0.94929,0.1986885 -1.920656,0.353224 -0.949289,0.132459 -1.721967,0.220765 -0.06623,0 -0.176612,0.022076 -0.08831,0 -0.198688,0 -0.08831,0 -0.198689,0 -0.110382,-0.022076 -0.220765,-0.044153 -0.132459,-0.044153 -0.242841,-0.06623 -0.110383,-0.044153 -0.220765,-0.044153 -0.220765,0 -0.220765,0.132459 0,0.1986885 0.198688,0.485683 0.220765,0.2869945 0.529836,0.529836 0.309071,0.220765 0.618142,0.220765 0.176612,0 1.103825,-0.132459 0.927213,-0.1545355 2.20765,-0.397377 -0.573989,1.589508 -1.302513,3.0024039 -0.706448,1.412896 -1.545355,2.6271039 -0.220765,0.309071 -0.397377,0.485683 -0.154536,0.154535 -0.264918,0.331147 -0.154536,0.242842 -0.154536,0.551913 0,0.353224 0.198689,0.640218 0.220765,0.264918 0.529836,0.264918 0.176612,0 0.3753,-0.132459 0.198689,-0.132459 0.397377,-0.419453 1.236284,-1.964809 2.119344,-3.8633879 0.88306,-1.8985789 1.567432,-3.7750814 2.008961,-0.397377 2.958251,-0.6843715 0.949289,-0.309071 0.949289,-0.6402185 0,-0.1986885 -0.242841,-0.4636065 -0.242842,-0.2869945 -0.971366,-0.2869945 -0.132459,0 -0.264918,0.088306 -0.132459,0.088306 -0.264918,0.132459 -0.331148,0.132459 -0.772678,0.264918 -0.419453,0.1103825 -0.927213,0.2428415 0.375301,-1.147978 0.529836,-1.6557375 0.176612,-0.5077595 0.198689,-0.662295 0.04415,-0.15453553 0.04415,-0.22076503 0,-0.3311475 -0.309071,-0.5077595 -0.309071,-0.176612 -0.640219,-0.2428415 -0.331147,-0.066229501604 -0.419453,-0.066229501604 -0.198689,0 -0.242842,0.11038250160401 -0.02208,0.0220765 -0.02208,0.088306 0,0.088306 0.06623,0.1986885 0.06623,0.1103825 0.08831,0.2428415 z m 8.565682,5.82819603 q -0.198688,0.066229 -0.485683,0.1103825 -0.286994,0.044153 -0.44153,0.088306 -0.220765,0.022076 -0.419453,0.132459 -0.198689,0.088306 -0.198689,0.1986885 0,0.176612 0.353224,0.309071 0.375301,0.1103825 0.88306,0.176612 0.529836,0.044153 1.015519,0.044153 0.463607,0 0.772678,-0.1103825 0.331147,-0.1103825 0.331147,-0.573989 0,-0.4194534 -0.596065,-1.0375954 -0.596066,-0.618142 -1.501202,-1.2583605 -0.88306,-0.662295 -1.810273,-1.1259015 -0.08831,-0.044153 -0.154536,-0.06623 -0.06623,-0.022076 -0.154535,-0.022076 -0.220765,0 -0.44153,0.220765 -0.154536,0.1986885 -0.154536,0.3311475 0,0.1986885 0.242842,0.353224 0.838907,0.485683 1.479125,0.9934425 0.662295,0.5077595 1.280437,1.236284 z M 69.12653,17.617046 h 0.242842 q 1.059672,0 1.788196,-0.3753 0.728525,-0.375301 1.147978,-0.905137 0.419454,-0.551912 0.573989,-1.037595 0.706448,0.353224 1.368743,0.860983 0.662295,0.485683 1.081749,0.971366 0.286994,0.309071 0.573989,0.309071 0.309071,0 0.485683,-0.286994 0.198688,-0.286995 0.198688,-0.618142 0,-0.353224 -0.220765,-0.573989 -0.309071,-0.286995 -0.860983,-0.662295 -0.529836,-0.375301 -1.192131,-0.728525 -0.662295,-0.3753 -1.302514,-0.640218 0,-0.94929 -0.08831,-2.20765 -0.06623,-1.280437 -0.286994,-3.3335519 -0.02208,-0.3311475 -0.176612,-0.5519125 -0.132459,-0.220765 -0.309071,-0.220765 -0.198689,0 -0.309071,0.353224 -0.08831,0.3311475 -0.132459,0.88306 -0.02208,0.529836 -0.02208,1.1259015 v 1.1259019 q 0,0.353224 0,0.88306 0.02208,0.529836 0.02208,1.037595 v 0.50776 q -0.529836,-0.132459 -1.103825,-0.198689 -0.573989,-0.08831 -1.258361,-0.110382 h -0.286994 q -1.434973,0 -2.295956,0.573989 -0.860984,0.551912 -0.860984,1.434972 v 0.08831 q 0.02208,0.485683 0.353224,1.015519 0.353224,0.50776 1.059672,0.860984 0.706448,0.3753 1.810273,0.419453 z m 2.450492,-2.825792 q -0.242842,0.750601 -0.94929,1.125902 -0.684371,0.3753 -1.523278,0.3753 -0.375301,-0.02208 -0.838907,-0.110382 -0.44153,-0.08831 -0.772678,-0.286995 -0.331147,-0.220765 -0.331147,-0.618142 0,-0.3753 0.331147,-0.573989 0.331148,-0.198688 0.816831,-0.264918 0.485683,-0.06623 0.949289,-0.06623 0.596066,0.02208 1.214208,0.154535 0.618142,0.110383 1.103825,0.264918 z M 82.815632,3.1569387 v 0.044153 q 0,0.1545355 0.198689,0.397377 0.220765,0.220765 0.242841,0.573989 0.04415,0.9934425 0.132459,2.295956 0.110383,1.3025134 0.309071,2.7154094 0.220765,1.4128959 0.573989,2.7154099 0.375301,1.302513 0.94929,2.318032 0.596065,0.993443 1.479125,1.457049 0.198689,0.08831 0.375301,0.154536 0.198688,0.06623 0.353224,0.06623 0.198688,0 0.44153,-0.176612 0.242841,-0.176612 0.309071,-0.88306 0.06623,-0.397377 0.220765,-1.015519 0.176612,-0.640218 0.3753,-1.302513 0.198689,-0.684372 0.375301,-1.192131 0.176612,-0.529836 0.242841,-0.706448 0.06623,-0.154536 0.08831,-0.264918 0.02208,-0.132459 0.02208,-0.220765 0,-0.3090714 -0.198689,-0.3090714 -0.220765,0 -0.44153,0.4415304 -0.08831,0.198688 -0.463606,0.81683 -0.353224,0.618142 -0.772678,1.39082 -0.419453,0.750601 -0.706448,1.346666 Q 86.347872,13.356282 85.950495,12.406992 85.553118,11.457703 85.2882,10.287648 85.045359,9.0955171 84.9129,7.9033861 84.780441,6.6891786 84.736288,5.6957362 q -0.04415,-1.015519 -0.04415,-1.589508 0,-0.220765 -0.06623,-0.44153 -0.04415,-0.220765 -0.3753,-0.3753005 Q 84.02984,3.1790152 83.720769,3.0907092 83.411698,2.9803267 83.168856,2.9803267 q -0.286994,0 -0.353224,0.176612 z m 16.579452,8.0799993 v -0.06623 Q 99.373007,10.685025 99.019783,9.8681946 98.688636,9.0513641 98.1588,8.1462276 97.628964,7.2190146 97.032898,6.4021842 96.436833,5.5632772 95.88492,5.0555177 q -0.551912,-0.529836 -0.949289,-0.529836 -0.242842,0 -0.419454,0.176612 -0.154535,0.1545355 -0.154535,0.397377 0,0.2869945 0.264918,0.529836 0.463606,0.397377 0.993442,1.1700544 0.529836,0.750601 0.993443,1.6557375 0.485683,0.88306 0.81683,1.7440434 0.353224,0.860984 0.44153,1.479126 0.04415,0.242841 0.220765,0.3753 0.176612,0.110383 0.397377,0.110383 0.309071,0 0.596066,-0.242842 0.309071,-0.242841 0.309071,-0.684371 z"
         id="text2"
         aria-label="おわらない" />
      <path
         style="font-size:16.8306px;font-family:'UD Digi Kyokasho NP-R';-inkscape-font-specification:'UD Digi Kyokasho NP-R';letter-spacing:0px;white-space:pre;fill:#ffffff"
         d="m 205.88091,448.37878 q 0.21367,0.16436 0.21367,0.45199 0,0.46843 -0.41912,0.5013 l -3.40228,0.2712 v 0.0493 q 0,0.53417 -0.53417,0.53417 -0.50952,0 -0.5424,-0.5013 l -0.3205,-4.25696 q -0.0164,-0.21367 0.0904,-0.35338 0.16436,-0.20545 0.46021,-0.20545 0.40269,0 0.53417,0.34516 l 3.22149,-0.36159 q 0.14792,-0.0164 0.24654,-0.0164 0.84646,0 0.84646,0.85468 0,0.14792 -0.0329,0.33694 z m -1.06835,0.008 0.25476,-2.16957 q 0.008,-0.0657 0.008,-0.0904 0,-0.17258 -0.19723,-0.1808 -0.0329,0 -0.0658,0 l -2.76948,0.30407 0.15614,2.35036 z m -5.6869,-6.56623 v 10.33833 q 0,0.53417 -0.5917,0.53417 -0.58348,0 -0.58348,-0.53417 v -8.39887 q -0.7725,1.11766 -1.51213,1.83263 -0.30406,0.28763 -0.52595,0.28763 -0.14793,0 -0.2712,-0.11505 -0.14792,-0.14792 -0.14792,-0.30407 0,-0.16436 0.18079,-0.38625 2.03808,-2.56403 3.41872,-6.29504 0.23011,-0.60813 0.65744,-0.60813 0.15615,0 0.28764,0.074 0.3205,0.17258 0.3205,0.50952 0,0.69854 -1.23271,3.06534 z m 6.71416,1.24914 -4.75826,0.43556 -0.074,0.008 q -0.22189,0.0164 -0.37803,-0.17258 -0.10684,-0.13971 -0.10684,-0.33694 0,-0.49308 0.50131,-0.54239 l 4.76647,-0.46843 q 0.29585,-0.0329 0.46022,0.17258 0.11505,0.14792 0.11505,0.34516 0,0.50952 -0.52596,0.55882 z m 3.65704,-2.89275 v 11.45598 q 0,1.26558 -1.07656,1.26558 -0.81359,0 -2.11205,-0.5013 -0.69032,-0.26298 -0.69032,-0.56705 0,-0.41912 0.38625,-0.41912 0.0904,0 0.31229,0.0575 0.87933,0.20545 1.48747,0.20545 0.34516,0 0.44378,-0.14792 0.074,-0.11506 0.074,-0.3616 v -10.69992 q 0,-0.37803 -0.33694,-0.37803 -0.0164,0 -0.0657,0 l -6.88674,0.60813 q -0.074,0.008 -0.0822,0.008 -0.5917,0 -0.5917,-0.52595 0,-0.5424 0.57527,-0.59171 l 7.18259,-0.62457 q 0.12327,-0.008 0.25476,-0.008 1.12587,0 1.12587,1.2245 z m 6.97714,2.7777 q 0.69854,-1.89015 1.07657,-3.14752 0.18079,-0.60813 0.67388,-0.60813 0.11505,0 0.21367,0.0329 0.37803,0.11505 0.37803,0.52595 0,0.24655 -1.04369,3.09 0.29585,-0.0164 0.59991,-0.0164 2.4983,0 2.4983,2.15313 0,2.60513 -1.07657,5.07055 -0.32872,0.75606 -0.84646,1.41351 -0.41912,0.54239 -1.05191,0.54239 -0.60814,0 -1.47104,-1.07657 -0.48486,-0.5917 -0.48486,-0.80537 0,-0.13149 0.12327,-0.24654 0.13149,-0.11505 0.27119,-0.11505 0.13971,0 0.40269,0.2301 0.82181,0.69854 1.01082,0.69854 0.30407,0 0.79715,-0.99439 0.43556,-0.87111 0.69854,-1.89015 0.37803,-1.42994 0.37803,-2.66265 0,-0.61636 -0.27941,-0.88756 -0.29585,-0.28763 -1.00261,-0.28763 -0.36981,0 -1.03547,0.0575 -1.06014,2.65443 -2.67909,5.73621 -0.21367,0.41912 -0.62458,0.41912 -0.19723,0 -0.35337,-0.10683 -0.24655,-0.17258 -0.24655,-0.46022 0,-0.22188 0.30407,-0.73962 1.1341,-1.93947 2.30106,-4.73361 -0.96973,0.10684 -1.92303,0.23833 -0.16436,0.0247 -0.24654,0.0247 -0.60814,0 -0.60814,-0.54239 0,-0.5424 0.58349,-0.64101 0.73962,-0.12327 2.66265,-0.2712 z m 7.28943,-0.87111 q 0.23832,0 0.57526,0.31228 1.3642,1.26559 2.44898,3.05712 0.20546,0.33694 0.20546,0.64101 0,0.37803 -0.30407,0.55883 -0.18902,0.11505 -0.37803,0.11505 -0.29585,0 -0.47665,-0.23832 -0.0904,-0.0986 -0.24654,-0.4109 -0.91221,-1.75867 -2.17779,-3.15574 -0.14793,-0.16436 -0.14793,-0.37803 0,-0.22189 0.14793,-0.35338 0.14792,-0.14792 0.35338,-0.14792 z m 10.73279,1.43816 -3.21326,0.32872 v 8.37421 q 0,0.54239 -0.5917,0.54239 -0.32051,0 -0.48487,-0.20545 -0.11505,-0.13971 -0.11505,-0.33694 V 439.2485 q 0,-0.25476 0.18901,-0.4109 0.1808,-0.13971 0.41091,-0.13971 0.37803,0 0.54239,0.31229 l 3.36119,-0.35338 q 0.11505,-0.008 0.21367,-0.008 0.93686,0 0.93686,1.01083 0,0.0493 0,0.11505 l -0.13971,3.71457 q -0.0411,0.50952 -0.56705,0.50952 -0.53417,0 -0.54239,-0.47665 z m 0.0822,-2.89276 0.0164,-0.65745 q -0.0164,-0.3205 -0.28763,-0.33694 l -3.02425,0.27942 v 1.04369 z m -0.0246,0.9122 -3.27079,0.32873 v 1.04369 l 3.23792,-0.33694 z m 7.67567,1.79154 -3.73922,0.22189 q -0.13149,0.32051 -0.52595,0.32051 -0.32051,0 -0.49309,-0.21367 -0.0904,-0.11506 -0.0904,-0.28764 V 438.928 q 0,-0.23832 0.18902,-0.37803 0.17258,-0.12327 0.39447,-0.12327 0.37803,0 0.51773,0.28763 l 3.71457,-0.30407 q 0.16436,-0.0164 0.25476,-0.0164 0.70675,0 0.88755,0.53418 0.0822,0.25476 0.0822,0.69032 v 12.28601 q 0,0.43555 -0.1808,0.69853 -0.23832,0.34516 -0.6821,0.34516 -0.67388,0 -1.90659,-0.52596 -0.55883,-0.23832 -0.55883,-0.49308 0,-0.40268 0.39447,-0.40268 0.10684,0 0.29585,0.0411 0.80537,0.18901 1.06013,0.18901 0.38625,0 0.38625,-0.43556 z m 0,-2.93385 v -0.69853 q 0,-0.33694 -0.31228,-0.33694 -0.0164,0 -0.0575,0 l -3.33654,0.27119 v 1.03548 z m 0,0.90399 -3.70635,0.26298 v 1.06013 l 3.70635,-0.23011 z m -5.01302,5.26778 q 0,0.10684 0,0.13149 0,0.43556 -0.0575,1.0026 l 2.89276,-0.20545 q 0.0658,-0.008 0.0904,-0.008 0.46843,-0.0247 0.46843,0.452 0,0.46021 -0.5013,0.49308 l -3.10643,0.22189 q -0.0493,0.19723 -0.0986,0.33694 1.92303,1.01082 2.48186,1.41351 0.40269,0.29585 0.40269,0.64923 0,0.17257 -0.11506,0.32872 -0.20545,0.27941 -0.48486,0.27941 -0.20545,0 -0.53418,-0.27941 -1.24914,-1.0437 -2.08739,-1.57787 -0.67388,1.21627 -2.21066,1.91481 -0.65744,0.30407 -0.90398,0.30407 -0.18902,0 -0.29585,-0.17258 -0.0822,-0.13971 -0.0822,-0.26298 0,-0.19723 0.17257,-0.31229 0.0493,-0.0246 0.27942,-0.1397 1.69292,-0.78894 2.23531,-2.39146 l -2.79414,0.19723 q -0.0329,0 -0.0986,0 -0.45199,0 -0.45199,-0.46021 0,-0.45199 0.5013,-0.48487 l 3.06534,-0.21367 q 0.0575,-0.44377 0.0575,-0.80537 0,-0.0986 -0.008,-0.3205 l -2.23531,0.1808 q -0.0329,0 -0.0986,0 -0.46021,0 -0.46021,-0.46021 0,-0.44378 0.5013,-0.48487 l 1.10944,-0.0904 q -0.0575,-0.074 -0.12327,-0.23011 -0.14793,-0.35337 -0.46021,-0.80537 -0.12328,-0.18079 -0.12328,-0.3205 0,-0.17258 0.15615,-0.30407 0.11505,-0.0986 0.24654,-0.0986 0.18901,0 0.70675,0.55062 0.51774,0.53417 0.51774,0.85467 0,0.17258 -0.11505,0.28764 l 1.51212,-0.11506 q 0.38625,-0.64101 0.63279,-1.24092 0.1808,-0.44378 0.53418,-0.44378 0.17258,0 0.33694,0.0904 0.29585,0.14792 0.29585,0.41912 0,0.36159 -0.61636,1.07657 l 0.87934,-0.0657 0.0822,-0.008 q 0.3205,-0.0247 0.43556,0.25476 0.0411,0.0822 0.0411,0.19724 0,0.46021 -0.50952,0.49308 z m 18.77828,0.0411 v 1.40529 l 3.78853,-0.13149 q 0.48487,0.0411 0.48487,0.51774 0,0.47665 -0.44378,0.49308 l -3.82962,0.13149 v 1.51213 q 0,0.12327 -0.0822,0.2301 -0.19723,0.23011 -0.50952,0.23011 -0.34516,0 -0.51774,-0.27942 -0.0493,-0.074 -0.0493,-0.18079 v -1.47104 l -3.33654,0.10684 q -0.0904,0.008 -0.17258,-0.0575 -0.24654,-0.17258 -0.24654,-0.45199 0,-0.30407 0.23832,-0.452 0.0658,-0.0411 0.14793,-0.0411 l 3.36941,-0.11505 v -1.38063 l -1.77511,0.10683 0.008,0.0904 q 0,0.13149 -0.0822,0.22189 -0.18901,0.21367 -0.46843,0.21367 -0.34516,0 -0.49308,-0.27942 -0.0411,-0.074 -0.0493,-0.15614 l -0.41912,-4.64321 q -0.008,-0.13971 0.074,-0.2301 0.1808,-0.21367 0.46021,-0.21367 0.37803,0 0.53418,0.32872 l 2.21066,-0.17258 v -1.10122 l -3.2297,0.25476 q -0.47665,-0.0164 -0.47665,-0.49309 0,-0.46843 0.46021,-0.5013 l 3.24614,-0.25476 v -1.51212 q 0,-0.13149 0.0822,-0.23011 0.18079,-0.2301 0.50952,-0.2301 0.31228,0 0.47664,0.20545 0.0904,0.10683 0.0904,0.25476 v 1.42172 l 2.95851,-0.2301 q 0.50952,0.0329 0.50952,0.48486 0,0.47665 -0.46843,0.50952 l -2.9996,0.23011 v 1.093 l 2.19423,-0.17258 h 0.22189 q 0.84646,0.14793 0.9122,0.76428 l 0.0164,0.19724 -0.34516,3.98576 q -0.0247,0.19723 -0.21367,0.32872 -0.16436,0.10684 -0.34516,0.10684 -0.36981,0 -0.51774,-0.27942 -0.0247,-0.0575 -0.0329,-0.13149 v -0.0247 l 0.008,-0.13149 z m 0,-0.87933 1.96412,-0.11505 0.0822,-1.12588 -2.0463,0.13971 z m -1.15874,0.074 v -1.10122 l -1.94769,0.13149 0.0904,1.08478 z m 1.15874,-2.05452 2.11205,-0.1397 0.0575,-0.79716 v -0.0575 q -0.0329,-0.12327 -0.15614,-0.17258 h -0.074 l -1.93947,0.14792 z m -1.15874,0.0822 v -1.0026 l -2.12026,0.17258 0.0904,0.96151 z m -6.34435,6.28683 h 0.074 0.074 q 1.29024,0 3.51734,0.45199 4.40488,0.89577 8.5057,0.96151 0.92042,0.0164 0.92042,0.23011 0,0.12327 -0.34516,0.40268 -0.80537,0.64101 -1.49569,0.64101 -0.24654,0 -0.87933,-0.0822 -2.69553,-0.33694 -7.60993,-1.38885 -1.56965,-0.33694 -2.70374,-0.33694 -0.58349,0 -1.58609,0.28763 -0.39447,0.10684 -0.5013,0.10684 -0.50131,0 -0.50131,-0.53418 0,-0.34516 0.38625,-0.47665 0.14793,-0.0493 0.84646,-0.15614 1.66827,-1.6847 1.66827,-2.14491 0,-0.18902 -0.40268,-0.43556 -0.43556,-0.26298 -0.43556,-0.67388 0,-0.47665 0.7725,-2.26819 l -1.98877,0.46843 q -0.10684,0.0247 -0.23011,0.0247 -0.33694,0 -0.46843,-0.3205 -0.0575,-0.13149 -0.0575,-0.23832 0,-0.41913 0.452,-0.50952 l 2.7777,-0.5424 q 0.10684,-0.0164 0.23833,-0.0164 0.67388,0 0.67388,0.60813 0,0.35338 -0.32051,0.82181 -0.46843,0.6821 -0.70675,1.31489 -0.0904,0.23011 -0.0904,0.38625 0,0.21367 0.34516,0.39447 0.54239,0.27941 0.65745,0.36159 0.27941,0.19724 0.27941,0.46843 0,0.64101 -1.8655,2.19423 z M 247.18492,438.928 q 0.42734,0 1.73401,0.95329 0.43556,0.32051 0.65744,0.5424 0.30407,0.28763 0.30407,0.5917 0,0.18901 -0.13149,0.36981 -0.18079,0.25476 -0.50952,0.25476 -0.3205,0 -0.66566,-0.40268 -0.73963,-0.87934 -1.52034,-1.48747 -0.26298,-0.20546 -0.26298,-0.41913 0,-0.40268 0.39447,-0.40268 z m 23.43792,2.58047 q 0.1808,0.37803 0.1808,1.11766 0,2.4572 -1.92303,5.51432 -1.42994,2.26819 -2.67909,2.26819 -0.87933,0 -1.56143,-0.89577 -0.87112,-1.13409 -0.87112,-2.95851 0,-1.89837 1.46282,-3.54198 1.15053,-1.29846 2.85167,-1.98056 1.53678,-0.62457 3.18861,-0.62457 2.31749,0 3.84606,1.39707 1.64361,1.49569 1.64361,3.85428 0,2.13669 -1.33955,3.72278 -1.01082,1.19984 -2.56403,1.82441 -0.26298,0.10684 -0.46022,0.10684 -0.25476,0 -0.37803,-0.17258 -0.0904,-0.12327 -0.0904,-0.24655 0,-0.18079 0.16436,-0.34515 0.0822,-0.074 0.65744,-0.40269 0.90399,-0.5013 1.60252,-1.41351 1.06014,-1.37241 1.06014,-3.0489 0,-1.96412 -1.40529,-3.18861 -1.16697,-1.01082 -2.71197,-1.01082 l -0.62457,0.0247 h -0.0164 -0.0164 z m -1.11765,0.19724 q -2.44077,0.67388 -3.71457,2.47363 -0.81359,1.15053 -0.81359,2.35037 0,1.30667 0.55883,2.16135 0.35338,0.54239 0.6821,0.54239 0.59992,0 1.47925,-1.34776 0.89577,-1.37242 1.43816,-2.98316 0.41912,-1.26558 0.41912,-2.2764 0,-0.27942 -0.0493,-0.92042 z m 16.61692,9.98495 -4.46241,0.26297 v 0.10684 q 0,0.15614 -0.0986,0.27941 -0.15615,0.20546 -0.44378,0.20546 -0.3205,0 -0.49308,-0.23833 -0.074,-0.0986 -0.074,-0.24654 v -9.26176 q 0,-0.22189 0.1808,-0.3616 0.17258,-0.12327 0.38625,-0.12327 0.3205,0 0.48487,0.26298 l 0.84646,-0.074 v -1.98056 l -1.51213,0.12327 -0.0904,0.008 q -0.33694,0.0164 -0.48486,-0.28763 -0.0493,-0.10683 -0.0493,-0.23832 0,-0.48487 0.50952,-0.52596 l 5.60472,-0.46843 0.0575,-0.008 q 0.30407,-0.0329 0.46021,0.2712 0.0657,0.11505 0.0657,0.26298 0,0.47664 -0.5013,0.51774 l -1.3642,0.11505 v 1.98877 l 0.99439,-0.0904 q 0.0575,0 0.17258,0 0.92042,0 0.92042,1.0437 v 8.8262 q 0,0.15614 -0.0986,0.27941 -0.15614,0.20546 -0.46021,0.20546 -0.31228,0 -0.46843,-0.23011 -0.0822,-0.10684 -0.0822,-0.25476 z m -3.68991,-8.21807 -0.7725,0.074 v 4.79935 l 4.46241,-0.3205 v -1.61074 l -0.45199,0.0411 q -0.13971,0.008 -0.35338,0.008 -0.66566,0 -0.9122,-0.28764 -0.20546,-0.23832 -0.20546,-0.76428 v -2.11204 l -0.8218,0.0822 q -0.0986,2.34215 -0.73141,3.5009 -0.23011,0.42734 -0.46021,0.42734 -0.34516,0 -0.34516,-0.33694 0,-0.11506 0.12327,-0.46843 0.4109,-1.17519 0.46843,-3.03247 z m 2.71196,-0.26298 v 1.8655 q 0,0.49309 0.44378,0.49309 0.0247,0 0.11505,-0.008 l 0.41912,-0.0329 v -2.02165 q 0,-0.11505 -0.0904,-0.19723 -0.14792,-0.13971 -0.4109,-0.13971 -0.0329,0 -0.0575,0 z m 0.97795,5.76087 -4.46241,0.3205 v 1.66827 l 4.46241,-0.25476 z m -1.92303,-6.61555 v -1.98877 l -0.80537,0.074 v 1.98878 z m 5.55542,2.93385 v 4.88153 q 0,0.55061 0.46021,0.67389 0.31229,0.0904 1.47925,0.0904 1.545,0 1.87372,-0.2301 0.17258,-0.11505 0.22189,-0.39447 0.0411,-0.24654 0.0411,-0.82181 0,-0.84646 0.0904,-0.95329 0.11505,-0.13149 0.33694,-0.13149 0.3205,0 0.40268,0.4109 0.19724,0.91221 0.19724,1.85729 0,0.96151 -0.73963,1.20805 -0.69853,0.23011 -2.49007,0.23011 -1.73401,0 -2.30928,-0.23011 -0.73963,-0.29585 -0.73963,-1.56965 v -5.0048 q -0.27119,-0.13971 -0.27119,-0.46021 0,-0.47665 0.57526,-0.52596 l 3.42694,-0.3205 0.47664,-2.88455 q 0.008,-0.0575 0.008,-0.16436 0,-0.31228 -0.33694,-0.31228 -0.0411,0 -0.13149,0.008 l -3.731,0.40269 q -0.0657,0.008 -0.10683,0.008 -0.53418,0 -0.53418,-0.52596 0,-0.5013 0.5917,-0.55883 l 4.13369,-0.41912 q 0.15614,-0.0164 0.3205,-0.0164 1.10944,0 1.10944,0.93686 0,0.17257 -0.0493,0.39446 l -0.64923,3.10643 q 0.26298,0.14793 0.26298,0.48487 0,0.46021 -0.56705,0.50952 z m 11.10261,-0.27941 2.8188,-0.21367 v -1.62718 q 0,-0.30407 0.24654,-0.46021 0.17258,-0.10684 0.37803,-0.10684 0.29585,0 0.48487,0.22189 0.12327,0.13971 0.12327,0.34516 v 1.52856 l 3.18039,-0.24654 q 0.0986,-0.008 0.1808,-0.008 0.5917,0 0.85468,0.32872 0.2301,0.29585 0.2301,0.94508 0,2.38324 -0.28763,3.73922 -0.23011,1.10122 -1.0437,1.10122 -0.55882,0 -1.70935,-0.49308 -0.6821,-0.28763 -0.6821,-0.61636 0,-0.39446 0.41912,-0.39446 0.13971,0 0.36159,0.074 0.5424,0.17258 0.97795,0.17258 0.36982,0 0.46843,-0.34516 0.0247,-0.10683 0.0575,-0.29585 0.19723,-1.39707 0.19723,-2.52295 0,-0.44377 -0.22188,-0.53417 -0.0822,-0.0411 -0.23011,-0.0411 -0.0164,0 -0.0247,0 l -2.7284,0.21367 v 6.65663 q 0,0.19724 -0.12327,0.33694 -0.18902,0.21367 -0.50131,0.21367 -0.36159,0 -0.53417,-0.27119 -0.074,-0.12327 -0.074,-0.27942 v -6.55801 l -2.7284,0.21367 0.23832,4.00219 q 0,0.21367 -0.0904,0.35338 -0.17258,0.2712 -0.51773,0.2712 -0.28764,0 -0.46843,-0.19724 -0.13971,-0.14792 -0.15615,-0.36159 l -0.2301,-3.73922 q -1.06835,1.1834 -2.12848,2.07095 -0.23833,0.19723 -0.43556,0.19723 -0.17258,0 -0.30407,-0.1397 -0.13971,-0.15615 -0.13971,-0.32051 0,-0.16436 0.13149,-0.31228 0.0329,-0.0329 0.39447,-0.3616 2.40789,-2.16135 4.03507,-5.34996 l -3.79675,0.26298 q -0.074,0.008 -0.0822,0.008 -0.34515,0 -0.50952,-0.28764 -0.0822,-0.1397 -0.0822,-0.29585 0,-0.35337 0.33694,-0.5013 0.12327,-0.0575 0.25476,-0.0657 l 4.44598,-0.31229 q 0.55883,-1.26558 0.93686,-2.56404 0.17258,-0.61635 0.62457,-0.61635 0.72319,0 0.72319,0.58348 0,0.20545 -0.17258,0.71497 -0.31229,0.96152 -0.6821,1.78332 l 7.00179,-0.5013 q 0.0493,0 0.074,0 0.61635,0 0.61635,0.51774 0,0.60814 -0.58348,0.64923 l -7.69211,0.52595 q -0.82181,1.56965 -1.83263,2.9092 z m 24.70351,-2.76949 q -0.56704,4.70073 -3.39406,7.914 -0.71497,0.81359 -1.19162,1.21627 -0.1808,0.15615 -0.38625,0.15615 -0.20545,0 -0.32872,-0.13149 -0.13971,-0.14793 -0.13971,-0.32051 0,-0.13971 0.10684,-0.27119 0.0493,-0.0575 0.57526,-0.58349 1.00261,-0.99438 1.88194,-2.58869 1.26558,-2.29284 1.70114,-5.28422 l -0.9533,0.0822 q -0.28763,1.31489 -1.093,2.80236 -1.06835,1.97233 -2.39968,3.08999 -0.26297,0.22189 -0.44377,0.22189 -0.16436,0 -0.32051,-0.15615 -0.10683,-0.10683 -0.10683,-0.24654 0,-0.17258 0.12327,-0.32872 0.0329,-0.0329 0.35338,-0.36981 1.84084,-1.89838 2.67087,-4.90619 l -0.98617,0.0822 q -0.61635,1.06835 -1.42172,2.11204 -0.21367,0.2712 -0.46843,0.2712 -0.15615,0 -0.27942,-0.0986 -0.17258,-0.13149 -0.17258,-0.34516 0,-0.18079 0.36982,-0.68209 0.5013,-0.66567 1.10943,-2.00521 0.66567,-1.47104 1.12588,-3.02425 0.1808,-0.62457 0.64101,-0.62457 0.14792,0 0.29585,0.0575 0.38625,0.13971 0.38625,0.56705 0,0.5917 -1.03548,2.73661 l 4.63499,-0.37803 q 0.16436,-0.0164 0.26298,-0.0164 0.72319,0 1.0026,0.42734 0.23011,0.33694 0.23011,1.1834 0,2.76127 -0.58348,5.5061 -0.49309,2.35037 -1.28202,3.70635 -0.37803,0.64923 -0.92864,0.64923 -0.5917,0 -1.97234,-0.96973 -0.52596,-0.36982 -0.52596,-0.62458 0,-0.34516 0.3616,-0.34516 0.1808,0 0.47665,0.13149 0.95329,0.41913 1.2738,0.41913 0.27941,0 0.46021,-0.32873 0.41912,-0.78893 0.78893,-2.16957 0.3616,-1.35598 0.55883,-2.9585 0.20545,-1.65183 0.20545,-2.88454 0,-0.54239 -0.21367,-0.67388 -0.11505,-0.0658 -0.31228,-0.0658 -0.0329,0 -0.0904,0 z m -10.23971,-0.30407 1.16697,-0.14792 v -3.31188 q 0,-0.21367 0.13149,-0.3616 0.17258,-0.19723 0.46843,-0.19723 0.36159,0 0.53417,0.27119 0.074,0.13149 0.074,0.28764 v 3.16395 l 1.17519,-0.15614 q 0.0411,0 0.0904,0 0.53417,0 0.53417,0.53417 0,0.47665 -0.48487,0.53418 l -1.31489,0.14792 v 3.3201 q 0.56705,-0.26298 1.07657,-0.52596 0.22189,-0.11505 0.39447,-0.11505 0.19723,0 0.31228,0.17258 0.0822,0.12327 0.0822,0.2712 0,0.2301 -0.27941,0.41912 -0.39447,0.27119 -1.38885,0.80537 l -0.19724,0.10683 v 5.276 q 0,0.21367 -0.15614,0.35338 -0.19723,0.1808 -0.50952,0.1808 -0.54239,0 -0.54239,-0.53418 v -4.65964 q -1.98878,0.90399 -2.30928,0.90399 -0.41912,0 -0.56705,-0.44378 -0.0493,-0.13971 -0.0493,-0.26298 0,-0.31228 0.27941,-0.47665 0.0822,-0.0411 0.53417,-0.18901 1.02726,-0.32051 2.11205,-0.76428 v -3.68991 l -1.47104,0.17258 q -0.38625,1.16696 -0.69031,1.75866 -0.21367,0.41912 -0.48487,0.41912 -0.11505,0 -0.26298,-0.0822 -0.19723,-0.0986 -0.19723,-0.34516 0,-0.12327 0.14792,-0.53417 0.5917,-1.66005 0.83825,-3.83784 0.074,-0.64101 0.61635,-0.64101 0.62457,0 0.62457,0.59992 0,0.36982 -0.28763,1.57787 z m 22.28739,5.53076 q -0.69031,0.37803 -1.2738,0.90399 -0.74784,0.67388 -0.74784,1.30667 0,0.98617 1.82441,0.98617 1.99699,0 3.47624,-0.1808 0.10684,-0.008 0.16436,-0.008 0.31229,0 0.48487,0.28764 0.10684,0.17257 0.10684,0.39446 0,0.46021 -0.59171,0.55883 -0.8218,0.13149 -3.0489,0.13149 -1.19984,0 -1.6847,-0.0904 -1.98056,-0.37803 -1.98056,-2.00521 0,-0.90398 0.59992,-1.61896 0.76428,-0.92042 2.638,-1.91481 -0.1808,-1.15874 -1.05191,-1.15874 -1.07657,0 -1.90659,0.55883 -0.33694,0.2301 -0.58348,0.2301 -0.21367,0 -0.38625,-0.19723 -0.16436,-0.19724 -0.16436,-0.41091 0,-0.21367 0.19723,-0.46021 0.60814,-0.73962 1.71757,-2.8681 -1.30667,0.14792 -2.19422,0.14792 -0.69853,0 -0.69853,-0.56704 0,-0.5917 0.60813,-0.5917 h 0.30407 q 1.0437,0 2.52295,-0.13971 0.41912,-0.84646 0.85468,-1.91481 0.20545,-0.50952 0.64101,-0.50952 0.14792,0 0.27941,0.0657 0.3205,0.16436 0.3205,0.47665 0,0.1808 -0.12327,0.42734 -0.0411,0.0822 -0.15614,0.33694 -0.20545,0.42734 -0.48487,0.96973 1.29024,-0.15614 2.44899,-0.41912 0.17258,-0.0411 0.26298,-0.0411 0.35337,0 0.48486,0.34516 0.0411,0.11505 0.0411,0.24654 0,0.42734 -0.53417,0.55883 -1.16697,0.28763 -3.29545,0.5013 -0.51774,1.06835 -1.44638,2.53117 l 0.0329,0.0493 q 0.79715,-0.36982 1.5943,-0.36982 1.41351,0 1.82441,1.61074 3.1393,-1.55321 3.64061,-1.55321 0.3205,0 0.46842,0.2301 0.10684,0.17258 0.10684,0.36982 0,0.26298 -0.20545,0.4109 -0.074,0.0575 -0.3616,0.16436 -1.90659,0.72319 -3.5502,1.545 v 1.64361 q 0,0.67388 -0.5917,0.67388 -0.58349,0 -0.58349,-0.67388 z m 17.57023,-5.48145 q 0.24654,0.14793 0.24654,0.44378 v 0.55882 l 4.14191,-0.27119 q 0.18901,-0.0164 0.35337,0.0822 0.19724,0.11505 0.19724,0.36159 0,0.46843 -0.50131,0.50131 l -4.19121,0.26297 v 0.88755 l 2.52295,-0.15614 q 0.074,-0.008 0.1397,-0.008 0.83825,0 0.83825,0.89577 v 4.5939 q 0,0.5917 -0.59992,0.5917 -0.52596,0 -0.57527,-0.49308 l -5.35818,0.30407 q -0.0657,0.50952 -0.5917,0.50952 -0.58348,0 -0.58348,-0.5917 v -5.01302 q 0,-0.64923 0.67388,-0.64923 0.29585,0 0.42734,0.22189 l 1.93125,-0.12327 v -0.89577 l -4.38023,0.27941 q -0.0658,0.008 -0.074,0.008 -0.23832,0 -0.37803,-0.16436 -0.0986,-0.11506 -0.0986,-0.28764 0,-0.44377 0.5013,-0.47664 l 4.42954,-0.29585 v -0.63279 q 0,-0.23833 0.18079,-0.40269 l -4.26517,0.24654 q -0.13149,0.37803 -0.55883,0.37803 -0.47665,0 -0.54239,-0.54239 l -0.32051,-2.62156 q -0.008,-0.0657 -0.008,-0.0904 0,-0.28763 0.23833,-0.44378 0.15614,-0.10683 0.35337,-0.10683 0.35338,0 0.51774,0.27941 l 9.48365,-0.56704 h 0.13149 q 0.88755,0.0246 0.93686,0.8218 l -0.0247,0.25476 -0.33694,2.00521 q -0.0904,0.53418 -0.55883,0.53418 -0.46022,0 -0.55061,-0.40269 z m -2.80236,-0.6821 -0.17258,-1.47103 -2.2271,0.13149 0.15614,1.47103 z m 1.01904,-0.0575 2.26818,-0.13149 0.12327,-1.48747 -2.49829,0.13971 z m 3.3201,-0.18901 2.30927,-0.13971 0.17258,-1.093 -0.0164,-0.13149 q -0.0575,-0.21367 -0.29585,-0.23832 h -0.0575 l -1.93946,0.10683 z m 1.03547,5.16916 v -0.39446 q 0,-0.32873 -0.33694,-0.30407 l -5.02124,0.35337 v 0.66567 z m 0,0.8629 -5.35818,0.31229 v 0.69853 l 5.35818,-0.3205 z m 0,1.545 -5.35818,0.3205 v 0.73963 l 5.35818,-0.30407 z m -8.43173,-1.59431 v 4.04329 q 0,0.27941 0.0657,0.36981 0.0657,0.0904 0.33694,0.0822 l 11.29163,-0.43555 h 0.0411 q 0.55061,0.0164 0.55061,0.46021 0,0.57526 -0.55883,0.59992 l -11.72718,0.43555 -0.14793,0.008 q -0.73963,0 -0.95329,-0.38625 -0.14793,-0.24654 -0.14793,-0.79715 v -4.38023 q 0,-0.61635 0.62457,-0.61635 0.62458,0 0.62458,0.61635 z m 24.16111,-8.39065 q 0.22189,0 0.42734,0.14793 0.26298,0.18902 0.26298,0.51774 0,0.27119 -0.21367,0.52595 -1.43817,1.76689 -3.41872,3.60774 -0.98617,0.90398 -1.7751,1.51212 -0.38625,0.29585 -0.38625,0.47665 0,0.16436 0.45199,0.5013 3.04891,2.21066 4.93906,4.38845 0.66566,0.76428 0.66566,1.13409 0,0.44378 -0.36159,0.6821 -0.19723,0.13149 -0.36981,0.13149 -0.22189,0 -0.44378,-0.20545 -0.0657,-0.074 -0.41912,-0.55061 -1.88194,-2.5476 -4.81579,-4.72539 -0.99438,-0.73963 -0.99438,-1.33955 0,-0.64922 0.85468,-1.30667 2.49007,-1.88194 4.94727,-5.12807 0.27942,-0.36982 0.64923,-0.36982 z m 12.66405,6.50871 q -0.60814,-1.28201 -1.26558,-3.63238 -0.20545,-0.74785 -0.50952,-1.26558 -0.11505,-0.20546 -0.11505,-0.40269 0,-0.25476 0.21367,-0.43556 0.16436,-0.14792 0.38624,-0.14792 0.50952,0 0.82181,0.5917 0.20545,0.39447 0.47665,1.55321 0.4109,1.70936 1.01904,2.93385 1.46282,-0.99438 4.65964,-2.93385 0.26298,-0.15614 0.44378,-0.15614 0.37803,0 0.56705,0.34516 0.0904,0.16436 0.0904,0.33694 0,0.27941 -0.23832,0.46843 -0.0657,0.0493 -0.42734,0.23011 -2.55582,1.28201 -4.5939,2.79414 -2.31749,1.70936 -2.31749,3.21326 0,1.67649 2.9585,1.67649 1.71758,0 3.52555,-0.20545 0.13971,-0.0164 0.22189,-0.0164 0.29585,0 0.47665,0.21367 0.14792,0.16436 0.14792,0.40268 0,0.56705 -0.58348,0.64101 -1.13409,0.13971 -3.68169,0.13971 -1.80798,0 -2.85989,-0.52596 -1.4546,-0.7314 -1.4546,-2.25175 0,-1.81619 2.03808,-3.56664 z m 17.3319,-4.94727 q 2.28462,0 4.10903,0.62457 1.08479,0.37803 1.08479,1.05191 0,0.43556 -0.59992,0.69854 -0.57527,0.25476 -1.6354,0.83002 -0.44377,0.23833 -0.64922,0.23833 -0.3616,0 -0.3616,-0.35338 0,-0.23011 0.27942,-0.41912 0.86289,-0.59992 1.17518,-0.7725 0.17258,-0.0986 0.17258,-0.17258 0,-0.074 -0.23833,-0.14792 -0.38624,-0.12327 -1.15052,-0.26298 -1.17519,-0.20545 -2.14492,-0.20545 -0.73963,0 -1.6847,0.13149 -0.2712,0.0329 -0.34516,0.0329 -0.18902,0 -0.34516,-0.0822 -0.2712,-0.13971 -0.2712,-0.452 0,-0.45199 0.51774,-0.58348 0.61636,-0.15614 2.08739,-0.15614 z m -2.44898,7.34695 q 0.30406,0 0.59991,0.49308 0.64923,1.06013 2.05452,1.44638 0.97795,0.26298 2.43255,0.26298 1.21627,0 2.48186,-0.19723 0.15614,-0.0247 0.2301,-0.0247 0.40269,0 0.56705,0.30407 0.0657,0.11505 0.0657,0.2712 0,0.56704 -0.5917,0.6821 -0.99438,0.20545 -2.72018,0.20545 -3.14752,0 -4.56103,-1.19984 -0.67388,-0.57526 -0.97795,-1.31489 -0.10683,-0.25476 -0.10683,-0.40268 0,-0.31229 0.25476,-0.452 0.13149,-0.074 0.2712,-0.074 z m 18.21123,-1.52856 q 2.02164,-1.17518 4.17478,-1.17518 1.42994,0 2.41611,0.63279 1.33132,0.84646 1.33132,2.34215 0,2.48185 -2.60512,3.63238 -1.10122,0.48487 -2.57226,0.71497 -0.27941,0.0411 -0.40268,0.0411 -0.52596,0 -0.52596,-0.44377 0,-0.30407 0.51774,-0.44378 2.09561,-0.55883 3.0489,-1.2738 1.19162,-0.90399 1.19162,-2.17779 0,-0.77249 -0.60814,-1.31489 -0.71497,-0.63279 -1.93124,-0.63279 -1.84907,0 -3.68991,0.90399 -0.78072,0.38625 -1.47926,0.92864 -0.38624,0.30407 -0.641,0.30407 -0.23833,0 -0.41091,-0.23011 -0.18901,-0.23832 -0.18901,-0.48486 0,-0.28763 0.20545,-0.52596 0.074,-0.0822 0.5013,-0.50952 2.92563,-2.89276 5.50611,-5.99097 -3.12287,0.64101 -3.94468,0.64101 -0.32872,0 -0.50952,-0.20545 -0.1397,-0.16436 -0.1397,-0.40269 0,-0.41912 0.40268,-0.54239 0.12327,-0.0411 0.55883,-0.0657 1.08478,-0.074 2.70374,-0.33695 0.92865,-0.15614 1.40529,-0.26297 0.16436,-0.0411 0.27942,-0.0411 0.37803,0 0.65744,0.27941 0.23833,0.24654 0.23833,0.54239 0,0.2712 -0.19724,0.50131 -0.85468,1.0026 -3.20504,3.41049 -0.98617,1.01083 -2.15314,2.1367 z"
         id="text3"
         transform="matrix(0.3772883,0,0,0.3772883,-73.138746,-142.57252)"
         aria-label="伺か関連の配布物を置くところ" />
      <text
         xml:space="preserve"
         style="font-style:normal;font-variant:normal;font-weight:normal;font-stretch:normal;font-size:5.64444px;font-family:'UD Digi Kyokasho NP-R';-inkscape-font-specification:'UD Digi Kyokasho NP-R';letter-spacing:0px;fill:#ffffff;stroke-width:0.264583"
         x="-65.749359"
         y="14.918311"
         id="text4"><tspan
           sodipodi:role="line"
           id="tspan4"
           style="stroke-width:0.264583;fill:#ffffff"
           x="-65.749359"
           y="14.918311" /></text>
    </g>
  </g>
</svg>
